<?xml version="1.0" standalone="no"?>
<!DOCTYPE svg PUBLIC "-//W3C//DTD SVG 20010904//EN"
 "http://www.w3.org/TR/2001/REC-SVG-20010904/DTD/svg10.dtd">
<svg version="1.0" xmlns="http://www.w3.org/2000/svg"
 width="512.000000pt" height="512.000000pt" viewBox="0 0 512.000000 512.000000"
 preserveAspectRatio="xMidYMid meet">
<metadata>
Created by potrace 1.11, written by Peter Selinger 2001-2013
</metadata>
<g transform="translate(0.000000,512.000000) scale(0.100000,-0.100000)"
fill="#000000" stroke="none">
<path d="M2450 5048 c-89 -32 -161 -82 -256 -180 -96 -99 -149 -173 -245 -339
-241 -416 -389 -566 -1044 -1057 -483 -363 -692 -544 -762 -663 -78 -132 -80
-272 -4 -423 95 -190 316 -393 839 -770 90 -65 165 -116 167 -114 1 1 15 48
30 103 98 363 349 984 636 1575 164 338 452 898 481 934 34 43 133 94 215 111
38 8 123 18 190 21 101 6 123 5 127 -7 3 -8 19 -196 36 -419 17 -223 51 -657
75 -966 25 -308 45 -568 45 -577 0 -10 3 -17 8 -17 14 1 111 227 290 675 173
432 247 608 345 817 l46 97 -56 68 c-140 171 -253 348 -392 613 -50 94 -111
203 -138 243 -71 108 -184 216 -268 258 -65 32 -76 34 -185 37 -99 2 -124 -1
-180 -20z"/>
<path d="M4021 3469 c-11 -29 -109 -268 -579 -1404 -197 -479 -362 -880 -366
-893 -7 -20 -14 -22 -75 -22 -132 0 -327 69 -376 134 -86 112 -146 636 -191
1646 -8 201 -17 366 -18 368 -3 3 -110 -261 -590 -1455 l-306 -761 58 -82 c83
-116 170 -257 250 -407 92 -172 158 -269 250 -365 125 -131 226 -178 382 -178
173 0 265 43 421 199 106 106 121 127 333 457 250 389 573 710 961 955 54 34
175 102 269 151 276 145 410 242 501 364 139 183 122 414 -43 620 -50 62 -105
107 -433 350 -112 84 -248 189 -303 235 -142 120 -134 116 -145 88z"/>
</g>
</svg>
